<svg xmlns="http://www.w3.org/2000/svg" viewBox="0 0 350 280" width="350" height="280">
  <defs>
    <radialGradient id="glow17" cx="50%" cy="42%" r="65%">
      <stop offset="0%" stop-color="#221c14"/>
      <stop offset="100%" stop-color="#0B0A08"/>
    </radialGradient>
    <filter id="grain17">
      <feTurbulence type="fractalNoise" baseFrequency="0.85" numOctaves="2" stitchTiles="stitch" result="noise"/>
      <feColorMatrix in="noise" type="matrix" values="0 0 0 0 1  0 0 0 0 1  0 0 0 0 1  0 0 0 0.03 0"/>
      <feComposite operator="over" in2="SourceGraphic"/>
    </filter>
  </defs>
  <rect width="350" height="280" fill="url(#glow17)"/>
  <rect x="10" y="10" width="330" height="260" fill="none" stroke="#8A6B2E" stroke-width="1"/>
  <g transform="translate(35, 10)" opacity="0.85"><g fill="none" stroke="#C6A15B" stroke-width="2"><path d="M140 190c-40 0-56-34-56-56 22 0 40 10 50 26"/><path d="M140 190c40 0 56-34 56-56-22 0-40 10-50 26"/><path d="M140 190c-16-30-16-64 0-92"/><path d="M140 190c16-30 16-64 0-92"/><path d="M140 190c0-34 0-62 0-92"/></g></g>
  <rect width="350" height="280" filter="url(#grain17)" opacity="0.5"/>
</svg>