<svg xmlns="http://www.w3.org/2000/svg" viewBox="0 0 280 350" width="280" height="350">
  <defs>
    <radialGradient id="glow03" cx="50%" cy="42%" r="65%">
      <stop offset="0%" stop-color="#221c14"/>
      <stop offset="100%" stop-color="#150C0E"/>
    </radialGradient>
    <filter id="grain03">
      <feTurbulence type="fractalNoise" baseFrequency="0.85" numOctaves="2" stitchTiles="stitch" result="noise"/>
      <feColorMatrix in="noise" type="matrix" values="0 0 0 0 1  0 0 0 0 1  0 0 0 0 1  0 0 0 0.03 0"/>
      <feComposite operator="over" in2="SourceGraphic"/>
    </filter>
  </defs>
  <rect width="280" height="350" fill="url(#glow03)"/>
  <rect x="10" y="10" width="260" height="330" fill="none" stroke="#8A6B2E" stroke-width="1"/>
  <g transform="translate(0, 45)" opacity="0.85"><g fill="none" stroke="#C6A15B" stroke-width="2"><path d="M140 190c-40 0-56-34-56-56 22 0 40 10 50 26"/><path d="M140 190c40 0 56-34 56-56-22 0-40 10-50 26"/><path d="M140 190c-16-30-16-64 0-92"/><path d="M140 190c16-30 16-64 0-92"/><path d="M140 190c0-34 0-62 0-92"/></g></g>
  <rect width="280" height="350" filter="url(#grain03)" opacity="0.5"/>
</svg>