<svg xmlns="http://www.w3.org/2000/svg" viewBox="0 0 280 350" width="280" height="350">
  <defs>
    <radialGradient id="glow07" cx="50%" cy="42%" r="65%">
      <stop offset="0%" stop-color="#221c14"/>
      <stop offset="100%" stop-color="#0C0F0E"/>
    </radialGradient>
    <filter id="grain07">
      <feTurbulence type="fractalNoise" baseFrequency="0.85" numOctaves="2" stitchTiles="stitch" result="noise"/>
      <feColorMatrix in="noise" type="matrix" values="0 0 0 0 1  0 0 0 0 1  0 0 0 0 1  0 0 0 0.03 0"/>
      <feComposite operator="over" in2="SourceGraphic"/>
    </filter>
  </defs>
  <rect width="280" height="350" fill="url(#glow07)"/>
  <rect x="10" y="10" width="260" height="330" fill="none" stroke="#8A6B2E" stroke-width="1"/>
  <g transform="translate(0, 45)" opacity="0.85"><g fill="none" stroke="#C6A15B" stroke-width="2"><path d="M100 200c-20-40-14-90 40-120"/><path d="M180 200c20-40 14-90-40-120"/><path d="M104 188 q10 -6 18 -14" /><path d="M110 162 q10 -6 18 -14" /><path d="M116 136 q10 -6 18 -14" /><path d="M122 110 q10 -6 18 -14" /><path d="M128 84 q10 -6 18 -14" /><path d="M176 188 q-10 -6 -18 -14" /><path d="M170 162 q-10 -6 -18 -14" /><path d="M164 136 q-10 -6 -18 -14" /><path d="M158 110 q-10 -6 -18 -14" /><path d="M152 84 q-10 -6 -18 -14" /></g></g>
  <rect width="280" height="350" filter="url(#grain07)" opacity="0.5"/>
</svg>